<?xml version="1.0" encoding="utf-8"?>
<!-- Generator: Adobe Illustrator 21.1.0, SVG Export Plug-In . SVG Version: 6.00 Build 0)  -->
<svg version="1.1" id="Capa_1" xmlns="http://www.w3.org/2000/svg" xmlns:xlink="http://www.w3.org/1999/xlink" x="0px" y="0px"
	 viewBox="0 0 887.2 905" style="enable-background:new 0 0 887.2 905;" xml:space="preserve">
<style type="text/css">
	.st0{fill:#121212;}
</style>
<g>
	<path class="st0" d="M887.2,537.6l-5.5,20.4l-29.9-8l23.1,33.5l-6.5,24.1l-24.1-36.4l-49.8,17.6l6.5-24.4l32.4-11.3l-6.2-9.7
		l-19.2-5.1l5.5-20.4L887.2,537.6z"/>
	<path class="st0" d="M854.4,637.7l-9.1,19.1l-68.8-33l9.1-19.1L854.4,637.7z"/>
	<path class="st0" d="M827,690.6l-12.2,17.3l-47.2-33.3l-21.3,30.2L731.2,694l33.5-47.4L827,690.6z"/>
	<path class="st0" d="M770.2,763.1l-14.9,15l-54.1-53.8l14.9-15L770.2,763.1z"/>
	<path class="st0" d="M725.9,806.1l-18.6,12.4L675.8,804l1.2,34.7l-18.6,12.4l-42.2-63.6l17.5-11.6l24.2,36.5l-0.3-35.7l0.4-0.2
		l32.6,14L666.5,754l17.2-11.5L725.9,806.1z"/>
	<path class="st0" d="M593.6,878.5l-19.4,6.4L519.4,822l21.5-7.1l9.5,11.3l28.1-9.2l0.9-14.7l21-6.9L593.6,878.5z M561.5,840
		l14.8,17.8l1.4-23.2L561.5,840z"/>
	<path class="st0" d="M506.5,900.6l-19.7,1.2L453,863.5l2.5,40.3l-20.9,1.3l-4.7-76.2l18.4-1.1l35.2,39.8l-2.6-41.8l20.9-1.3
		L506.5,900.6z"/>
	<path class="st0" d="M410.1,838.8l-15.5,10.5c-2.9-5-6-8.1-10.7-8.9c-5.2-0.8-9.1,2.2-10.2,9.2l-7.7,47.7l-20.8-3.4l7.8-47.8
		c1.5-9.5,5-15.8,10.9-20c5.8-4.1,13.3-5.7,21.9-4.3C398.8,823.9,405.9,830.7,410.1,838.8z"/>
	<path class="st0" d="M338.5,826l-17.2,7.4c-1.9-5.5-4.3-9.1-8.8-10.8c-4.9-1.8-9.3,0.4-11.8,7.1L284.1,875l-19.8-7.2l16.6-45.5
		c3.3-9,7.9-14.5,14.4-17.6c6.4-3,14.1-3.1,22.3-0.1C330.2,809.2,335.9,817.2,338.5,826z"/>
	<path class="st0" d="M270.5,799.9l-18.3,4c-0.9-5.7-2.5-9.8-6.7-12.2c-4.5-2.7-9.2-1.3-12.9,4.7l-24.8,41.4L189.7,827l24.9-41.5
		c4.9-8.2,10.5-12.8,17.5-14.6c6.9-1.7,14.5-0.4,21.9,4.1C265.5,781.9,269.6,790.8,270.5,799.9z"/>
	<path class="st0" d="M139.8,787.8l-14.8-14l29.2-78.2l16.5,15.6l-5.5,13.7l21.5,20.3L200,739l16.1,15.2L139.8,787.8z M158.4,741.2
		l-8.6,21.5l21.1-9.8L158.4,741.2z"/>
	<path class="st0" d="M79.4,722.1L60,691.7c-6.3-9.8-8-18.3-6.5-25.3c1.4-6.2,5-11.2,11.3-15.3L65,651c9.9-6.3,19.8-5.3,28.3,0.6
		l12.6-29.6l13.1,20.5l-11.2,25.4l5,7.9l19.5-12.4l11.4,17.8L79.4,722.1z M91.3,672.7c-3.8-6-9-7.7-13.7-4.7l-0.2,0.1
		c-5.1,3.3-5.3,8.7-1.6,14.6l7.5,11.8l15.5-9.9L91.3,672.7z"/>
	<path class="st0" d="M62.7,619.3l-0.2,0.1c-20.8,6.8-43.2-4.5-50.5-26.9s4-44.4,24.8-51.2l0.2-0.1c20.8-6.8,43.2,4.5,50.5,26.9
		S83.5,612.6,62.7,619.3z M44,561.8l-0.2,0.1c-10.6,3.4-17.2,13.8-13.5,24.9s14.9,15.5,25.4,12.1l0.2-0.1
		c10.5-3.4,17.1-13.9,13.5-25C65.7,562.9,54.4,558.4,44,561.8z"/>
	<path class="st0" d="M23.2,467.2l-0.3-21.5l21.3-0.3l0.3,21.5L23.2,467.2z"/>
	<path class="st0" d="M0,358.2l5.9-20.3l29.7,8.6l-22.4-34l7-24l23.4,36.9l50.2-16.5l-7,24.3l-32.6,10.6l6,9.8l19.1,5.5l-5.9,20.3
		L0,358.2z"/>
	<path class="st0" d="M34.8,258.7l9.5-18.9l68.1,34.4l-9.5,18.9L34.8,258.7z"/>
	<path class="st0" d="M63.3,206.4l12.5-17l46.5,34.3l21.9-29.7l14.9,11l-34.5,46.8L63.3,206.4z"/>
	<path class="st0" d="M121.5,135.1l15.2-14.7l53,54.9L174.6,190L121.5,135.1z"/>
	<path class="st0" d="M166.6,93l18.9-12l31.2,15.2l-0.5-34.7l18.9-12l40.9,64.4l-17.8,11.3l-23.5-37l-0.4,35.7l-0.4,0.2l-32.3-14.7
		l23.4,36.9l-17.5,11.1L166.6,93z"/>
	<path class="st0" d="M300.4,23.3l19.5-6l53.6,64l-21.7,6.6l-9.2-11.5l-28.2,8.7l-1.2,14.7l-21.2,6.5L300.4,23.3z M331.7,62.5
		l-14.5-18.1l-1.9,23.2L331.7,62.5z"/>
	<path class="st0" d="M388,2.9l19.7-0.8l33,39L439,0.9L459.9,0l3.1,76.2L444.7,77l-34.4-40.5l1.7,41.8l-20.9,0.9L388,2.9z"/>
	<path class="st0" d="M483.1,66.7l15.7-10.2c2.8,5.1,5.8,8.3,10.5,9.1c5.1,0.9,9.1-2,10.4-9l8.7-47.5l20.7,3.8l-8.7,47.6
		c-1.7,9.4-5.3,15.6-11.3,19.8c-5.8,4-13.4,5.4-22,3.8C494.1,81.8,487.1,74.9,483.1,66.7z"/>
	<path class="st0" d="M554.4,81l17.4-7.1c1.8,5.5,4.1,9.2,8.6,10.9c4.9,1.9,9.3-0.2,11.9-6.8l17.5-45l19.6,7.6l-17.5,45.1
		c-3.5,8.9-8.2,14.4-14.8,17.3c-6.5,2.9-14.2,2.8-22.3-0.4C562.4,97.9,556.9,89.8,554.4,81z"/>
	<path class="st0" d="M621.9,108.4l18.4-3.7c0.8,5.8,2.3,9.8,6.4,12.4c4.4,2.8,9.2,1.5,13-4.5l25.6-40.9l17.8,11.2l-25.7,41
		c-5.1,8.1-10.7,12.6-17.8,14.2c-6.9,1.6-14.5,0.1-21.8-4.5C626.5,126.5,622.6,117.5,621.9,108.4z"/>
	<path class="st0" d="M752.3,123.1l14.5,14.3L736.1,215l-16.2-15.9l5.7-13.6l-21.1-20.7l-13.5,6l-15.8-15.5L752.3,123.1z
		 M732.8,169.4l9.1-21.3l-21.3,9.3L732.8,169.4z"/>
	<path class="st0" d="M811.4,190l18.8,30.8c6.1,10,7.7,18.4,6,25.5c-1.5,6.1-5.2,11.1-11.7,15l-0.2,0.1c-10.1,6.1-19.9,4.9-28.3-1.1
		l-13.2,29.4l-12.7-20.8l11.7-25.2l-4.9-8l-19.7,12l-11-18.1L811.4,190z M798.4,239.1c3.7,6,8.9,7.9,13.6,5l0.2-0.1
		c5.2-3.2,5.5-8.6,1.9-14.5l-7.3-11.9l-15.7,9.6L798.4,239.1z"/>
	<path class="st0" d="M826,293.1l0.2-0.1c21-6.4,43.1,5.4,49.9,27.9s-4.9,44.3-25.9,50.7l-0.2,0.1c-21,6.4-43.1-5.4-49.9-27.9
		C793.3,321.3,805,299.5,826,293.1z M843.6,351l0.2-0.1c10.6-3.2,17.4-13.5,14.1-24.6s-14.6-15.8-25.1-12.7l-0.2,0.1
		c-10.5,3.2-17.4,13.6-14,24.8C821.8,349.5,833,354.2,843.6,351z"/>
	<path class="st0" d="M862.5,446.4l-0.3,21.5l-21.3-0.3l0.3-21.5L862.5,446.4z"/>
</g>
</svg>
